<svg width="1121" height="1684" viewBox="0 0 1121 1684" fill="none" xmlns="http://www.w3.org/2000/svg">
<g clip-path="url(#clip0_163_3)">
<path d="M11.2025 125.492C17.378 125.492 23.4817 124.99 29.4059 124.021V1607.98H32.9963V123.41C79.2409 114.544 116.15 78.0026 125.521 31.8051H991.889C1002.23 84.3561 1047.33 123.733 1102.69 125.421V1552.48H1106.28V121.867H1104.52C1043.05 120.898 994.187 72.0081 993.217 10.5909V8.83203H124.265V10.5909C123.295 71.9722 72.5627 121.903 11.1666 121.903L7.57617 121.831V1552.48H11.1666V125.492H11.2025ZM989.663 12.4216C989.807 17.8059 990.381 23.0466 991.207 28.2156H126.204C127.065 23.0466 127.64 17.77 127.819 12.4216H989.699H989.663Z" fill="#063636"/>
<path d="M28.1489 71.0015L34.2885 87.6211C34.7193 88.7697 35.7606 89.4876 36.9813 89.4876C38.202 89.4876 39.2433 88.7697 39.6741 87.6211L45.8137 71.0015C47.4653 66.5145 50.9839 62.9968 55.4719 61.3456L72.0956 55.2075C73.2445 54.7767 73.9626 53.7357 73.9626 52.5153C73.9626 51.2949 73.2445 50.2539 72.0956 49.8231L55.4719 43.685C50.9839 42.0338 47.4653 38.5161 45.8137 34.0291L39.6741 17.4095C39.2433 16.2609 38.202 15.543 36.9813 15.543C35.7606 15.543 34.7193 16.2609 34.2885 17.4095L28.1489 34.0291C26.4973 38.5161 22.9787 42.0338 18.4906 43.685L1.86702 49.8231C0.718083 50.2898 0 51.3308 0 52.5512C0 53.7716 0.718083 54.8126 1.86702 55.2434L18.4906 61.3815C22.9787 63.0327 26.4973 66.5504 28.1489 71.0374V71.0015ZM19.7473 47.0592C25.2047 45.049 29.5132 40.7416 31.5239 35.2855L36.9813 20.5324L42.4387 35.2855C44.4494 40.7416 48.7579 45.049 54.2153 47.0592L68.9719 52.5153L54.2153 57.9714C48.7579 59.9816 44.4494 64.289 42.4387 69.7451L36.9813 84.4982L31.5239 69.7451C29.5132 64.289 25.2047 59.9816 19.7473 57.9714L4.99068 52.5153L19.7473 47.0592Z" fill="#063636"/>
<path d="M1119.13 50.9364L1102.51 44.7983C1098.02 43.1471 1094.5 39.6293 1092.85 35.1424L1086.71 18.5228C1086.28 17.3742 1085.24 16.6562 1084.02 16.6562C1082.8 16.6562 1081.76 17.3742 1081.33 18.5228L1075.19 35.1424C1073.53 39.6293 1070.02 43.1471 1065.53 44.7983L1048.9 50.9364C1047.76 51.3672 1047.04 52.4081 1047.04 53.6286C1047.04 54.849 1047.79 55.89 1048.9 56.3207L1065.53 62.4589C1070.02 64.1101 1073.53 67.6278 1075.19 72.1147L1081.33 88.7343C1081.76 89.883 1082.8 90.6009 1084.02 90.6009C1085.24 90.6009 1086.28 89.883 1086.71 88.7343L1092.85 72.1147C1094.5 67.6278 1098.02 64.1101 1102.51 62.4589L1119.13 56.3207C1120.28 55.89 1121 54.849 1121 53.6286C1121 52.4081 1120.28 51.3672 1119.13 50.9364ZM1101.25 59.0847C1095.79 61.0948 1091.49 65.4023 1089.48 70.8584L1084.02 85.6114L1078.56 70.8584C1076.55 65.4023 1072.24 61.0948 1066.78 59.0847L1052.03 53.6286L1066.78 48.1725C1072.24 46.1623 1076.55 41.8549 1078.56 36.3988L1084.02 21.6457L1089.48 36.3988C1091.49 41.8549 1095.79 46.1623 1101.25 48.1725L1116.01 53.6286L1101.25 59.0847Z" fill="#063636"/>
<path d="M1085.63 125.777H1082.04V1618.74H1085.63V125.777Z" fill="#063636"/>
<path d="M69.1512 20.2458L71.6286 21.1432C76.1166 22.7944 79.6352 26.3121 81.2868 30.7991L82.1844 33.2758C82.6153 34.4245 83.6565 35.1424 84.8772 35.1424C86.098 35.1424 87.1392 34.4245 87.57 33.2758L88.4676 30.7991C90.1192 26.3121 93.6378 22.7944 98.1259 21.1432L100.603 20.2458C101.752 19.815 102.47 18.7741 102.47 17.5536C102.47 16.3332 101.752 15.2922 100.603 14.8615L98.1259 13.9641C93.6378 12.3129 90.1192 8.79513 88.4676 4.3082L87.57 1.83141C87.1392 0.682753 86.098 -0.0351562 84.8772 -0.0351562C83.6565 -0.0351562 82.6153 0.682753 82.1844 1.83141L81.2868 4.3082C79.6352 8.79513 76.1166 12.3129 71.6286 13.9641L69.1512 14.8615C68.0023 15.2922 67.2842 16.3332 67.2842 17.5536C67.2842 18.7741 68.0023 19.815 69.1512 20.2458ZM72.8493 17.3383C78.3068 15.3281 82.6153 11.0206 84.6259 5.56454L84.8413 4.95431L85.0567 5.56454C87.0674 11.0206 91.3759 15.3281 96.8333 17.3383L97.4437 17.5536L96.8333 17.769C91.3759 19.7791 87.0674 24.0866 85.0567 29.5427L84.8413 30.1529L84.6259 29.5427C82.6153 24.0866 78.3068 19.7791 72.8493 17.769L72.239 17.5536L72.8493 17.3383Z" fill="#063636"/>
<path d="M1017.95 21.7153L1020.43 22.6127C1024.92 24.2639 1028.44 27.7816 1030.09 32.2685L1030.99 34.7094C1031.42 35.8581 1032.46 36.576 1033.68 36.576C1034.9 36.576 1035.94 35.8581 1036.37 34.7094L1037.27 32.2326C1038.92 27.7457 1042.44 24.228 1046.93 22.5768L1049.41 21.6794C1050.56 21.2486 1051.27 20.2077 1051.27 18.9872C1051.27 17.7668 1050.56 16.7258 1049.41 16.2951L1046.93 15.3977C1042.44 13.7465 1038.92 10.2287 1037.27 5.74179L1036.37 3.265C1035.94 2.11635 1034.9 1.39844 1033.68 1.39844C1032.46 1.39844 1031.42 2.15224 1030.99 3.265L1030.09 5.74179C1028.44 10.2287 1024.92 13.7465 1020.43 15.3977L1017.95 16.2951C1016.81 16.7258 1016.09 17.7668 1016.09 18.9872C1016.09 20.2077 1016.81 21.2486 1017.95 21.6794V21.7153ZM1021.69 18.8077C1027.15 16.7976 1031.45 12.4901 1033.47 7.03403L1033.68 6.4238L1033.9 7.03403C1035.91 12.4901 1040.22 16.7976 1045.67 18.8077L1046.28 19.0231L1045.67 19.2385C1040.22 21.2486 1035.91 25.5561 1033.9 31.0122L1033.68 31.6224L1033.47 31.0122C1031.45 25.5561 1027.15 21.2486 1021.69 19.2385L1021.08 19.0231L1021.69 18.8077Z" fill="#063636"/>
<path d="M127.716 1636.7L31.4688 1638.19L31.5245 1641.78L127.772 1640.29L127.716 1636.7Z" fill="#063636"/>
<path d="M978.826 1643.87L978.813 1647.46L1084.08 1647.83L1084.1 1644.24L978.826 1643.87Z" fill="#063636"/>
<path d="M346.914 1668.93L10.1006 1670.58L10.1181 1674.17L346.931 1672.52L346.914 1668.93Z" fill="#063636"/>
<path d="M770.518 1668.92L770.515 1672.51L1108.01 1672.86L1108.02 1669.27L770.518 1668.92Z" fill="#063636"/>
</g>
<defs>
<clipPath id="clip0_163_3">
<rect width="1121" height="1684" rx="60" fill="white"/>
</clipPath>
</defs>
</svg>
