<svg width="6039" height="6039" viewBox="0 0 6039 6039" fill="none" xmlns="http://www.w3.org/2000/svg">
<path d="M4702.21 4523.57C5349.49 4152.12 5332.73 3562.02 4999.2 2970.2C4866.5 2731.39 4947.84 2463.17 5076.14 2241.48C6009.19 728.631 5189.55 -249.983 3510.81 266.831C3262.97 322.027 2988.62 322.088 2770.92 465.815C2626.47 568.206 2433.94 879.424 2663.54 998.935C2905.01 1097.64 3175.44 972.333 3409.96 904.516C3876.2 700.55 4448.57 740.86 4474.69 1362.42C4488.4 1843.79 4234.25 2325.45 3851.2 2612.33C3602.78 2812.28 3110.34 2942.88 2935.27 2589.27C2729.55 2068.19 3620.63 1634.05 3470.44 1301.76C3417.18 1198.98 3288.34 1174.37 3182.93 1174.09C2509.67 1199.67 2065.72 1799.7 1494.22 2075.14C1315.8 2173.54 886.791 2315.76 1030.52 1944.91C1181.61 1590.99 1525.83 1372.29 1823.98 1150.66C2474.56 757.467 2255.31 345.036 1556.57 324.02C1025.26 311.852 512.647 484.143 0 600.816V823.352C575.694 706.136 1165.43 466.389 1761.93 566.032C1826.6 582.971 1977.52 613.377 1998.08 685.935C2001.04 719.663 1954.72 762.026 1933.8 783.555C1605.94 1078.14 1189.92 1283.04 939.028 1657.85C716.885 1935.64 704.807 2426.09 1166.97 2403.26C1362.42 2390.46 1550.11 2298.04 1717.21 2202.11C2170.37 1959.73 2726.5 1327.45 3266.32 1402.49C3277.16 1419.52 3212.33 1489.18 3201.31 1502.77C3168.49 1543.17 3133.71 1581.94 3099.59 1621.25C2804.25 1939.32 2479.75 2488.44 2865.06 2860.41C3897.79 3582.22 5176.81 1716.24 4509.47 833.286C3994.11 260.339 3388.73 799.498 2808.51 814.535C2742.87 820.453 2817.6 723.86 2831.97 705.532C2977.12 521.132 3404.37 527.413 3633.25 464.728C4022.25 398.3 4439.36 262.815 4824.56 411.857C5422.2 662.685 5292.24 1433.62 5020.19 1886.6C4831.41 2224.27 4596.86 2613.51 4776.58 3003.96C4945.91 3343.08 5155.1 3762.45 4871.93 4102.72C4843.64 4139.29 4811.94 4173.16 4777.91 4204.45C4772.53 4209.37 4745.02 4240.74 4735.51 4238.99C4713.44 3379.07 3510.69 3380.04 3561.66 4150.43C3642.97 4521.1 4088.77 4683.85 4430.54 4621.86C4437.67 4629.26 4396.54 4694.87 4391.5 4703.99C4341.89 4793.3 4280.39 4875.83 4210.54 4950.35C3753.15 5477.58 2879.5 5506.14 2954.41 4627.66C3044.48 3951.38 3152.46 2888.95 2136.52 3052.88C2046.21 3082.65 2090.36 3058.67 2048.17 2954.14C1994.03 2798.88 1877.27 2661.67 1719.62 2605.9C1423.32 2500.58 971.246 2699.87 970.823 3044.81C1019.1 3411.98 1488.33 3439.1 1776.06 3366.42C1870.33 3337.31 1868.03 3335.86 1833.55 3430.88C1726.78 3740.08 1430.3 3986.59 1099.66 4007.7C792.765 4034.24 776.852 3770.7 776.55 3537.05C764.804 2970.72 613.951 2276.75 0.0301948 2091.71V2323.04C19.0227 2327.96 46.7114 2346.5 58.5779 2352.39C240.653 2436.42 363.787 2606.54 430.034 2791.36C641.187 3195.24 412.974 3953.1 814.203 4168.12C1384.76 4406.03 2030.18 3856.09 2088.51 3288.67C2537.75 3140.95 2776.71 3389.52 2797.1 3832.32C2821.58 4307.59 2573.71 4874.98 2907.97 5290.04C3199.71 5651.23 3743.98 5589.06 4087.41 5337.69C4380.09 5147.52 4600.75 4855.02 4702.24 4523.54L4702.21 4523.57ZM4391.99 4405.97C4045.47 4502.47 3486.65 4116.25 3943.26 3833.99C4228.72 3693.4 4541.12 3962.52 4514.94 4261.88C4523.73 4386.49 4510.35 4387.46 4391.99 4405.97ZM1864.26 3119.49C1853.78 3136.3 1778.14 3142.92 1758.7 3147.39C1680.64 3165.35 1599.6 3181.39 1519.16 3181.66C1266.4 3196.54 1023.6 3026.09 1338.87 2851.08C1531.93 2733.08 1778.41 2808.27 1844.18 3031.47C1849.88 3047.98 1874.28 3103.36 1864.23 3119.52L1864.26 3119.49Z" fill="white"/>
<path d="M5850.73 0.0301948H5590.72C5940.92 499.935 5874.55 1010.95 5565.36 1514.21C5434.79 1728.68 5305.35 1948.41 5256.4 2197.88C5149.69 2674.75 5201.12 3206.33 5478.82 3617.97C5543.86 3712.96 5628.4 3802.7 5675.42 3908.63C5779.14 4306.47 5221.35 4419.89 4982.96 4611.68C4803.36 4743.85 4656.34 4918.94 4551.84 5115.36C4446.73 5312.9 4374.17 5580.48 4130.98 5648.18C3910.14 5688.13 3707.59 5799.33 3682.23 6038.96H3903.62C3929.04 5920.05 4049.58 5892 4156.59 5866.04C4581.82 5781.46 4646.68 5305.26 4878.39 5012.4C5142.84 4627.57 5753.14 4594.92 5900 4117.15C6026.07 3593.03 5107.9 3375.08 5524.38 2055.15C5744.83 1600.69 5983.73 1261.48 6038.93 874.442V543.356C6015.68 379.126 5956.83 201.158 5850.7 0L5850.73 0.0301948Z" fill="white"/>
<path d="M5850.91 1846.11C5496.3 2433.67 5549.17 2822.04 6038.96 3277.5V2960C5730.76 2628.07 5825.43 2308.33 6038.96 1955.36V1501.89C6032.62 1516.9 6027.25 1531.06 6024.77 1535.98C5971.63 1641.96 5910.09 1743.45 5850.91 1846.11Z" fill="white"/>
</svg>
